<mxfile host="app.diagrams.net" agent="Mozilla/5.0 (Windows NT 10.0; Win64; x64) AppleWebKit/537.36 (KHTML, like Gecko) Chrome/130.0.0.0 Safari/537.36" version="24.7.17">
  <diagram id="C5RBs43oDa-KdzZeNtuy" name="Page-1">
    <mxGraphModel dx="1364" dy="1611" grid="1" gridSize="10" guides="1" tooltips="1" connect="1" arrows="1" fold="1" page="1" pageScale="1" pageWidth="827" pageHeight="1169" math="0" shadow="0">
      <root>
        <mxCell id="WIyWlLk6GJQsqaUBKTNV-0" />
        <mxCell id="WIyWlLk6GJQsqaUBKTNV-1" parent="WIyWlLk6GJQsqaUBKTNV-0" />
        <mxCell id="3gYNeF9paigV0srNTuFU-2" value="&lt;font style=&quot;font-size: 18px;&quot;&gt;Vehiculo&lt;/font&gt;" style="rounded=0;whiteSpace=wrap;html=1;" vertex="1" parent="WIyWlLk6GJQsqaUBKTNV-1">
          <mxGeometry x="20" y="-70" width="120" height="60" as="geometry" />
        </mxCell>
        <mxCell id="3gYNeF9paigV0srNTuFU-5" value="" style="line;strokeWidth=4;direction=south;html=1;perimeter=backbonePerimeter;points=[];outlineConnect=0;rotation=90;" vertex="1" parent="WIyWlLk6GJQsqaUBKTNV-1">
          <mxGeometry x="104" y="-13.75" width="10" height="87.5" as="geometry" />
        </mxCell>
        <mxCell id="3gYNeF9paigV0srNTuFU-6" value="" style="line;strokeWidth=4;direction=south;html=1;perimeter=backbonePerimeter;points=[];outlineConnect=0;" vertex="1" parent="WIyWlLk6GJQsqaUBKTNV-1">
          <mxGeometry x="60" y="-10" width="10" height="1140" as="geometry" />
        </mxCell>
        <mxCell id="3gYNeF9paigV0srNTuFU-8" value="" style="line;strokeWidth=4;html=1;perimeter=backbonePerimeter;points=[];outlineConnect=0;" vertex="1" parent="WIyWlLk6GJQsqaUBKTNV-1">
          <mxGeometry x="64" y="100" width="90" height="10" as="geometry" />
        </mxCell>
        <mxCell id="3gYNeF9paigV0srNTuFU-9" value="" style="line;strokeWidth=4;html=1;perimeter=backbonePerimeter;points=[];outlineConnect=0;" vertex="1" parent="WIyWlLk6GJQsqaUBKTNV-1">
          <mxGeometry x="62" y="170" width="88" height="10" as="geometry" />
        </mxCell>
        <mxCell id="3gYNeF9paigV0srNTuFU-14" value="marca : str" style="shape=ext;double=1;rounded=0;whiteSpace=wrap;html=1;" vertex="1" parent="WIyWlLk6GJQsqaUBKTNV-1">
          <mxGeometry x="148" width="140" height="60" as="geometry" />
        </mxCell>
        <mxCell id="3gYNeF9paigV0srNTuFU-15" value="nro_ruedas : int" style="shape=ext;double=1;rounded=0;whiteSpace=wrap;html=1;" vertex="1" parent="WIyWlLk6GJQsqaUBKTNV-1">
          <mxGeometry x="150" y="150" width="140" height="60" as="geometry" />
        </mxCell>
        <mxCell id="3gYNeF9paigV0srNTuFU-16" value="modelo : str" style="shape=ext;double=1;rounded=0;whiteSpace=wrap;html=1;" vertex="1" parent="WIyWlLk6GJQsqaUBKTNV-1">
          <mxGeometry x="150" y="75" width="140" height="60" as="geometry" />
        </mxCell>
        <mxCell id="3gYNeF9paigV0srNTuFU-19" value="" style="line;strokeWidth=4;html=1;perimeter=backbonePerimeter;points=[];outlineConnect=0;" vertex="1" parent="WIyWlLk6GJQsqaUBKTNV-1">
          <mxGeometry x="62" y="340" width="98" height="10" as="geometry" />
        </mxCell>
        <mxCell id="3gYNeF9paigV0srNTuFU-20" style="edgeStyle=orthogonalEdgeStyle;rounded=0;orthogonalLoop=1;jettySize=auto;html=1;" edge="1" parent="WIyWlLk6GJQsqaUBKTNV-1">
          <mxGeometry relative="1" as="geometry">
            <mxPoint x="580" y="250" as="sourcePoint" />
            <mxPoint x="580" y="270" as="targetPoint" />
          </mxGeometry>
        </mxCell>
        <mxCell id="3gYNeF9paigV0srNTuFU-21" value="Automóvil (hereda de Vehículo)" style="shape=ext;double=1;rounded=0;whiteSpace=wrap;html=1;" vertex="1" parent="WIyWlLk6GJQsqaUBKTNV-1">
          <mxGeometry x="154" y="315" width="296" height="60" as="geometry" />
        </mxCell>
        <mxCell id="3gYNeF9paigV0srNTuFU-22" value="" style="line;strokeWidth=4;html=1;perimeter=backbonePerimeter;points=[];outlineConnect=0;rotation=90;" vertex="1" parent="WIyWlLk6GJQsqaUBKTNV-1">
          <mxGeometry x="27.76" y="560.25" width="380.48" height="10" as="geometry" />
        </mxCell>
        <mxCell id="3gYNeF9paigV0srNTuFU-23" value="" style="line;strokeWidth=2;html=1;" vertex="1" parent="WIyWlLk6GJQsqaUBKTNV-1">
          <mxGeometry x="220" y="410" width="60" height="10" as="geometry" />
        </mxCell>
        <mxCell id="3gYNeF9paigV0srNTuFU-24" value="" style="line;strokeWidth=2;html=1;" vertex="1" parent="WIyWlLk6GJQsqaUBKTNV-1">
          <mxGeometry x="220" y="480" width="60" height="10" as="geometry" />
        </mxCell>
        <mxCell id="3gYNeF9paigV0srNTuFU-26" value="velocidad : int" style="shape=ext;double=1;rounded=0;whiteSpace=wrap;html=1;" vertex="1" parent="WIyWlLk6GJQsqaUBKTNV-1">
          <mxGeometry x="280" y="395" width="110" height="40" as="geometry" />
        </mxCell>
        <mxCell id="3gYNeF9paigV0srNTuFU-27" value="cilindrada : int" style="shape=ext;double=1;rounded=0;whiteSpace=wrap;html=1;" vertex="1" parent="WIyWlLk6GJQsqaUBKTNV-1">
          <mxGeometry x="280" y="465" width="110" height="40" as="geometry" />
        </mxCell>
        <mxCell id="3gYNeF9paigV0srNTuFU-29" value="Particular (hereda de Automóvil)" style="shape=ext;double=1;rounded=0;whiteSpace=wrap;html=1;" vertex="1" parent="WIyWlLk6GJQsqaUBKTNV-1">
          <mxGeometry x="260" y="610" width="190" height="60" as="geometry" />
        </mxCell>
        <mxCell id="3gYNeF9paigV0srNTuFU-30" value="" style="line;strokeWidth=2;html=1;" vertex="1" parent="WIyWlLk6GJQsqaUBKTNV-1">
          <mxGeometry x="220" y="635" width="40" height="10" as="geometry" />
        </mxCell>
        <mxCell id="3gYNeF9paigV0srNTuFU-31" value="Carga (hereda de Automóvil)" style="shape=ext;double=1;rounded=0;whiteSpace=wrap;html=1;" vertex="1" parent="WIyWlLk6GJQsqaUBKTNV-1">
          <mxGeometry x="260" y="710" width="190" height="60" as="geometry" />
        </mxCell>
        <mxCell id="3gYNeF9paigV0srNTuFU-32" value="" style="line;strokeWidth=2;html=1;" vertex="1" parent="WIyWlLk6GJQsqaUBKTNV-1">
          <mxGeometry x="220" y="750" width="40" height="10" as="geometry" />
        </mxCell>
        <mxCell id="3gYNeF9paigV0srNTuFU-33" value="Bicicleta (hereda de Vehículo)" style="shape=ext;double=1;rounded=0;whiteSpace=wrap;html=1;" vertex="1" parent="WIyWlLk6GJQsqaUBKTNV-1">
          <mxGeometry x="130" y="810" width="190" height="60" as="geometry" />
        </mxCell>
        <mxCell id="3gYNeF9paigV0srNTuFU-34" value="" style="line;strokeWidth=2;html=1;" vertex="1" parent="WIyWlLk6GJQsqaUBKTNV-1">
          <mxGeometry x="64" y="835" width="66" height="10" as="geometry" />
        </mxCell>
        <mxCell id="3gYNeF9paigV0srNTuFU-35" value="Motocicleta (hereda de Bicicleta)" style="shape=ext;double=1;rounded=0;whiteSpace=wrap;html=1;" vertex="1" parent="WIyWlLk6GJQsqaUBKTNV-1">
          <mxGeometry x="180" y="920" width="190" height="60" as="geometry" />
        </mxCell>
        <mxCell id="3gYNeF9paigV0srNTuFU-36" value="" style="line;strokeWidth=2;html=1;rotation=90;" vertex="1" parent="WIyWlLk6GJQsqaUBKTNV-1">
          <mxGeometry x="195" y="890" width="50" height="10" as="geometry" />
        </mxCell>
        <mxCell id="3gYNeF9paigV0srNTuFU-38" value="cilindrada : int" style="shape=ext;double=1;rounded=0;whiteSpace=wrap;html=1;" vertex="1" parent="WIyWlLk6GJQsqaUBKTNV-1">
          <mxGeometry x="250" y="1010" width="110" height="40" as="geometry" />
        </mxCell>
        <mxCell id="3gYNeF9paigV0srNTuFU-39" value="" style="line;strokeWidth=2;html=1;rotation=90;" vertex="1" parent="WIyWlLk6GJQsqaUBKTNV-1">
          <mxGeometry x="270" y="990" width="30" height="10" as="geometry" />
        </mxCell>
        <mxCell id="3gYNeF9paigV0srNTuFU-40" value="DIAGRAMA DE CLASES 1" style="whiteSpace=wrap;html=1;" vertex="1" parent="WIyWlLk6GJQsqaUBKTNV-1">
          <mxGeometry x="-10" y="-160" width="340" height="60" as="geometry" />
        </mxCell>
        <mxCell id="3gYNeF9paigV0srNTuFU-41" value="Particular (hereda de Automóvil)" style="shape=ext;double=1;rounded=0;whiteSpace=wrap;html=1;" vertex="1" parent="WIyWlLk6GJQsqaUBKTNV-1">
          <mxGeometry x="123" y="1100" width="190" height="60" as="geometry" />
        </mxCell>
        <mxCell id="3gYNeF9paigV0srNTuFU-42" value="" style="line;strokeWidth=2;html=1;" vertex="1" parent="WIyWlLk6GJQsqaUBKTNV-1">
          <mxGeometry x="64" y="1125" width="60" height="10" as="geometry" />
        </mxCell>
        <mxCell id="3gYNeF9paigV0srNTuFU-47" value="" style="line;strokeWidth=2;html=1;" vertex="1" parent="WIyWlLk6GJQsqaUBKTNV-1">
          <mxGeometry x="320" y="840" width="66" height="10" as="geometry" />
        </mxCell>
        <mxCell id="3gYNeF9paigV0srNTuFU-48" value="tipo : str" style="shape=ext;double=1;rounded=0;whiteSpace=wrap;html=1;" vertex="1" parent="WIyWlLk6GJQsqaUBKTNV-1">
          <mxGeometry x="380" y="825" width="110" height="40" as="geometry" />
        </mxCell>
      </root>
    </mxGraphModel>
  </diagram>
</mxfile>
